<?xml version="1.0" encoding="UTF-8" standalone="no"?>
<!-- Created with Inkscape (http://www.inkscape.org/) -->

<svg
   xmlns:dc="http://purl.org/dc/elements/1.1/"
   xmlns:cc="http://creativecommons.org/ns#"
   xmlns:rdf="http://www.w3.org/1999/02/22-rdf-syntax-ns#"
   xmlns:svg="http://www.w3.org/2000/svg"
   xmlns="http://www.w3.org/2000/svg"
   xmlns:sodipodi="http://sodipodi.sourceforge.net/DTD/sodipodi-0.dtd"
   xmlns:inkscape="http://www.inkscape.org/namespaces/inkscape"
   width="128"
   height="128"
   viewBox="0 0 36.124445 36.124445"
   version="1.1"
   id="svg8"
   inkscape:version="0.92.3 (2405546, 2018-03-11)"
   sodipodi:docname="phototools.svg">
  <defs
     id="defs2" />
  <sodipodi:namedview
     id="base"
     pagecolor="#ffffff"
     bordercolor="#666666"
     borderopacity="1.0"
     inkscape:pageopacity="0.0"
     inkscape:pageshadow="2"
     inkscape:zoom="3.9291194"
     inkscape:cx="82.604025"
     inkscape:cy="81.162935"
     inkscape:document-units="mm"
     inkscape:current-layer="layer1"
     showgrid="false"
     inkscape:window-width="1778"
     inkscape:window-height="932"
     inkscape:window-x="0"
     inkscape:window-y="66"
     inkscape:window-maximized="1"
     showguides="true"
     inkscape:guide-bbox="true"
     units="px">
    <inkscape:grid
       type="xygrid"
       id="grid4630" />
  </sodipodi:namedview>
  <metadata
     id="metadata5">
    <rdf:RDF>
      <cc:Work
         rdf:about="">
        <dc:format>image/svg+xml</dc:format>
        <dc:type
           rdf:resource="http://purl.org/dc/dcmitype/StillImage" />
        <dc:title></dc:title>
      </cc:Work>
    </rdf:RDF>
  </metadata>
  <g
     inkscape:label="Laag 1"
     inkscape:groupmode="layer"
     id="layer1"
     transform="translate(0,-260.87554)">
    <text
       xml:space="preserve"
       style="font-style:normal;font-variant:normal;font-weight:normal;font-stretch:normal;line-height:0%;font-family:ding;-inkscape-font-specification:ding;letter-spacing:0px;word-spacing:0px;fill:#000000;fill-opacity:1;stroke:none;stroke-width:0.26458332"
       x="7.1354365"
       y="288.10974"
       id="text4701"
       transform="scale(0.98420722,1.0160462)"><tspan
         sodipodi:role="line"
         id="tspan4699"
         x="7.1354365"
         y="288.10974"
         style="font-size:4.21962309px;line-height:1.25;stroke-width:0.26458332">Phototools</tspan></text>
    <g
       transform="translate(1.4988923e-8,3.5617592)"
       id="g4182">
      <rect
         style="fill:#ffffff;stroke:#000000;stroke-width:1.12888908;stroke-miterlimit:4;stroke-dasharray:none;stroke-opacity:1"
         y="266.45868"
         x="4.7731719"
         height="18.052629"
         width="26.606825"
         id="rect3713-3" />
      <path
         inkscape:connector-curvature="0"
         id="path4520-6"
         d="m 4.6440118,280.95162 5.4246932,-5.33951 2.324868,2.54263 7.362083,-7.24648 5.941329,10.29762 2.06655,-1.52557 3.487302,1.77984"
         style="fill:none;stroke:#000000;stroke-width:1.32291663;stroke-linecap:butt;stroke-linejoin:miter;stroke-miterlimit:4;stroke-dasharray:none;stroke-opacity:1" />
      <ellipse
         ry="1.9492803"
         rx="2.0984569"
         cy="271.56805"
         cx="25.946928"
         id="path4522-7"
         style="fill:#ffd5d5;stroke:#000000;stroke-width:1.05833328;stroke-miterlimit:4;stroke-dasharray:none;stroke-opacity:1" />
      <path
         inkscape:connector-curvature="0"
         id="path4674-5"
         d="m 5.3577863,282.35558 3.921e-4,-1.7696 2.0641655,-1.96214 c 1.1352907,-1.07918 2.1405424,-2.03287 2.2338922,-2.11931 l 0.1697252,-0.15716 1.1990087,1.26564 1.199006,1.26563 0.193002,-0.17325 c 0.106151,-0.0953 1.195338,-1.12516 2.420412,-2.28863 l 2.22741,-2.11539 0.237533,0.29165 0.237531,0.29164 0.185315,-0.0983 c 0.101926,-0.054 0.220059,-0.11994 0.262526,-0.14644 0.06869,-0.0429 0.100518,-0.0299 0.28828,0.11698 l 0.211065,0.16516 0.504888,-0.37718 c 0.277688,-0.20744 0.517766,-0.38143 0.533506,-0.38663 0.01573,-0.005 0.106367,0.13509 0.201394,0.31174 0.203347,0.37803 0.735266,1.21975 0.77081,1.21975 0.01356,0 0.100895,-0.19805 0.194091,-0.44011 l 0.169432,-0.4401 0.186745,0 c 0.181919,0 0.189938,-0.005 0.310241,-0.18785 l 0.123495,-0.18784 0.08095,0.12366 c 0.04453,0.068 1.041197,1.73281 2.21483,3.69953 1.173633,1.96673 2.155018,3.59723 2.180854,3.62333 0.03747,0.0378 0.268056,-0.10995 1.138755,-0.72987 l 1.091777,-0.77733 0.150727,0.0697 c 0.0829,0.0383 0.702821,0.34201 1.377604,0.67482 l 1.226877,0.60511 0,1.20116 0,1.20117 -12.793317,0 -12.7932874,0 z"
         style="fill:#b3b3b3;stroke:#000000;stroke-width:0.56444454;stroke-miterlimit:4;stroke-dasharray:none;stroke-opacity:1" />
    </g>
  </g>
</svg>
